<svg width="23" height="23" viewBox="0 0 23 23" fill="none" xmlns="http://www.w3.org/2000/svg">
<path fill-rule="evenodd" clip-rule="evenodd" d="M8.86631 0.636888C9.16643 0.936179 9.1671 1.4221 8.86781 1.72221L6.24527 4.35199H16.9297L14.3072 1.72229C14.0079 1.42217 14.0086 0.936255 14.3087 0.636964C14.6088 0.337673 15.0947 0.338344 15.394 0.638462L19.0973 4.35199H19.5481C20.1538 4.35199 20.9531 4.37333 21.5829 4.79517C22.2953 5.27233 22.5871 6.09347 22.5871 7.16595C22.5871 8.33585 22.323 9.22733 21.5391 9.67912C21.3508 9.7876 21.1547 9.85591 20.964 9.89955L19.3195 18.4744C19.1385 19.4195 18.9021 20.4671 18.1655 21.239C17.396 22.0452 16.2317 22.4129 14.5444 22.4129H8.37412C6.7862 22.4129 5.62854 22.0162 4.83246 21.21C4.05802 20.4257 3.74626 19.3702 3.57505 18.3322L2.19844 9.89681C2.01143 9.85306 1.81954 9.78535 1.63521 9.67912C0.8513 9.22733 0.587143 8.33585 0.587143 7.16595C0.587143 6.09347 0.878951 5.27232 1.59135 4.79517C2.22118 4.37333 3.02048 4.35199 3.62621 4.35199H4.07761L7.78098 0.638385C8.08028 0.338267 8.56619 0.337597 8.86631 0.636888ZM3.76719 9.9799L5.08947 18.0824C5.08944 18.0822 5.0895 18.0826 5.08947 18.0824C5.2457 19.0292 5.49171 19.6931 5.92462 20.1315C6.33598 20.5481 7.03552 20.878 8.37412 20.878H14.5444C16.0393 20.878 16.7015 20.5498 17.0551 20.1793C17.4415 19.7744 17.6246 19.1643 17.812 18.1857L19.3857 9.9799H3.76719ZM2.4455 6.07044C2.33673 6.14329 2.12203 6.3454 2.12203 7.16595C2.12203 8.18855 2.36087 8.32585 2.40079 8.3488C2.46055 8.38324 2.5724 8.42022 2.79654 8.43669C2.96744 8.44925 3.14354 8.44792 3.36226 8.44628C3.44369 8.44567 3.53103 8.44502 3.62621 8.44502H19.5481C19.6433 8.44502 19.7306 8.44567 19.812 8.44628C20.0307 8.44792 20.2068 8.44925 20.3777 8.43669C20.6019 8.42022 20.7129 8.38372 20.7727 8.34928C20.8126 8.32634 21.0523 8.18856 21.0523 7.16595C21.0523 6.3454 20.8376 6.14329 20.7288 6.07044C20.5375 5.94229 20.2009 5.88688 19.5481 5.88688H3.62621C2.97334 5.88688 2.63683 5.94229 2.4455 6.07044ZM8.00575 12.9477C8.42959 12.9477 8.77319 13.2913 8.77319 13.7152C8.77319 15.256 10.0463 16.5291 11.5871 16.5291C13.1279 16.5291 14.4011 15.256 14.4011 13.7152C14.4011 13.2913 14.7447 12.9477 15.1685 12.9477C15.5924 12.9477 15.936 13.2913 15.936 13.7152C15.936 16.1037 13.9756 18.064 11.5871 18.064C9.19865 18.064 7.23831 16.1037 7.23831 13.7152C7.23831 13.2913 7.5819 12.9477 8.00575 12.9477Z" fill="#1F2029"/>
</svg>
