<svg width="14" height="14" viewBox="0 0 14 14" fill="none" xmlns="http://www.w3.org/2000/svg">
<path d="M7 13.9989C13.4954 13.9989 14 9.14089 14 7.6518C14 4.21161 11.5818 2.81925 10.3091 2.56089C10.1917 2.53601 10.0697 2.54482 9.95717 2.58629C9.84461 2.62775 9.74605 2.70019 9.67288 2.79525C9.59971 2.89031 9.55489 3.00412 9.54361 3.12355C9.53232 3.24298 9.55502 3.36317 9.60909 3.47025C9.88048 3.9318 9.98579 4.4723 9.90754 5.00198C9.85218 5.09171 9.63454 5.10189 9.54291 5.10189C9.04145 5.10189 8.81427 4.4598 8.72454 4.07734C8.43691 2.86061 8.806 1.39698 9.19164 1.2048C9.32701 1.13966 9.43497 1.02874 9.49642 0.891651C9.55786 0.754567 9.56883 0.600164 9.52738 0.45577C9.48593 0.311376 9.39473 0.186302 9.26993 0.102685C9.14512 0.0190681 8.99476 -0.0177002 8.84545 -0.00111233C8.66091 0.0173422 4.92036 0.431615 3.00555 3.50652C2.9894 3.27615 3.028 3.04522 3.11818 2.83261C3.1818 2.70665 3.20174 2.56311 3.17487 2.42458C3.148 2.28604 3.07585 2.16037 2.96975 2.06732C2.86366 1.97427 2.72965 1.91912 2.58879 1.91055C2.44794 1.90198 2.30823 1.94048 2.19164 2.01998C2.1 2.0798 0 3.52434 0 7.01352C0 11.5807 2.41818 13.9989 7 13.9989ZM1.83718 4.42161C1.93139 4.87017 2.06011 5.31079 2.22218 5.73952C2.26917 5.86536 2.35477 5.97309 2.46672 6.04731C2.57868 6.12152 2.71124 6.15841 2.84544 6.15269C2.97964 6.14697 3.10858 6.09893 3.21381 6.01546C3.31904 5.93198 3.39516 5.81735 3.43127 5.68798C3.7204 4.71589 4.24929 3.8321 4.9693 3.11787C5.68932 2.40364 6.57734 1.8819 7.55173 1.60061C7.30333 2.50452 7.28147 3.45571 7.48809 4.37007C7.78845 5.6428 8.53873 6.37461 9.54482 6.37461C9.82699 6.39857 10.1104 6.34588 10.3651 6.22211C10.6198 6.09834 10.8364 5.90809 10.9919 5.67143C11.2125 5.26953 11.2884 4.80406 11.207 4.35289C11.7157 4.73211 12.1213 5.23268 12.3869 5.80892C12.6524 6.38515 12.7694 7.01872 12.7273 7.6518C12.7273 9.54434 11.9834 12.7262 7 12.7262C3.14618 12.7262 1.27273 10.8572 1.27273 7.01352C1.25545 6.11729 1.44879 5.22951 1.83718 4.42161Z" fill="black"/>
</svg>
