<svg width="23" height="23" viewBox="0 0 23 23" fill="none" xmlns="http://www.w3.org/2000/svg">
<path fill-rule="evenodd" clip-rule="evenodd" d="M11.0588 0.432008C12.1183 0.407132 13.2203 0.67666 14.0942 1.28918L20.4167 5.72463C21.0507 6.16729 21.585 6.84975 21.959 7.56704C22.3331 8.28464 22.5871 9.11399 22.5871 9.88981V17.3486C22.5871 20.1385 20.3108 22.4304 17.5118 22.4304H5.66249C2.86233 22.4304 0.587143 20.1374 0.587143 17.3384V9.74638C0.587143 9.01844 0.816766 8.23052 1.15421 7.54189C1.4917 6.85316 1.97419 6.18788 2.55078 5.73866L8.06613 1.43551C8.91005 0.778294 9.9993 0.456883 11.0588 0.432008ZM9.009 2.64819L3.4942 6.95092C3.15011 7.21889 2.7983 7.67573 2.53217 8.21883C2.26589 8.76224 2.12203 9.31652 2.12203 9.74638V17.3384C2.12203 19.2933 3.71475 20.8936 5.66249 20.8936H17.5118C19.4607 20.8936 21.0523 19.2922 21.0523 17.3486V9.88981C21.0523 9.42588 20.8919 8.84132 20.5983 8.2782C20.3047 7.71504 19.9178 7.24975 19.539 6.98545L19.5375 6.98436L13.214 2.54821C12.6554 2.15678 11.8898 1.94976 11.0948 1.96843C10.2998 1.98709 9.54647 2.22974 9.009 2.64819Z" fill="#000000"/>
<path fill-rule="evenodd" clip-rule="evenodd" d="M11.5878 13.7222C12.0117 13.7222 12.3553 14.0663 12.3553 14.4906V17.5643C12.3553 17.9887 12.0117 18.3327 11.5878 18.3327C11.164 18.3327 10.8204 17.9887 10.8204 17.5643V14.4906C10.8204 14.0663 11.164 13.7222 11.5878 13.7222Z" fill="#000000"/>
</svg>
