<svg width="23" height="23" viewBox="0 0 23 23" fill="none" xmlns="http://www.w3.org/2000/svg">
<path fill-rule="evenodd" clip-rule="evenodd" d="M3.50785 3.49993C2.67927 4.32619 2.19774 5.62776 2.19774 7.55061V12.6527C2.19774 15.1377 2.70289 16.3814 3.47055 17.0512C4.26356 17.7431 5.53689 18.0098 7.56983 18.0098H8.08146C8.37085 18.0098 8.6524 18.0999 8.87383 18.2093C9.09247 18.3174 9.33976 18.4875 9.51673 18.7277L11.0489 20.7649C11.2629 21.0495 11.4927 21.1322 11.6629 21.1322C11.833 21.1322 12.0628 21.0495 12.2768 20.7649L13.8117 18.7241L13.8146 18.7202C14.152 18.2776 14.6836 18.0098 15.2443 18.0098H15.7559C17.6841 18.0098 18.9893 17.5296 19.8179 16.7033C20.6464 15.8771 21.128 14.5755 21.128 12.6527V7.55061C21.128 7.12794 21.4716 6.78531 21.8954 6.78531C22.3193 6.78531 22.6629 7.12794 22.6629 7.55061V12.6527C22.6629 14.8114 22.1211 16.5711 20.9032 17.7856C19.6853 19.0002 17.9207 19.5404 15.7559 19.5404H15.2443C15.171 19.5404 15.0893 19.5783 15.0377 19.645C15.0373 19.6454 15.037 19.6459 15.0367 19.6463L13.5047 21.6833C13.0434 22.2966 12.3829 22.6629 11.6629 22.6629C10.9428 22.6629 10.2823 22.2966 9.821 21.6833L8.28485 19.6408C8.28257 19.6386 8.27796 19.6345 8.27046 19.6286C8.25195 19.6143 8.2251 19.597 8.19212 19.5807C8.15921 19.5644 8.12784 19.5529 8.10267 19.5461C8.08785 19.5421 8.07906 19.5408 8.07629 19.5404H7.56983C5.50975 19.5404 3.71332 19.2969 2.45982 18.2031C1.18097 17.0872 0.662857 15.2697 0.662857 12.6527V7.55061C0.662857 5.39183 1.20458 3.63217 2.42252 2.41762C3.64046 1.20307 5.40503 0.662857 7.56983 0.662857H11.6629C12.0867 0.662857 12.4303 1.0055 12.4303 1.42816C12.4303 1.85083 12.0867 2.19347 11.6629 2.19347H7.56983C5.64162 2.19347 4.33642 2.67366 3.50785 3.49993Z" fill="#292D32"/>
<path fill-rule="evenodd" clip-rule="evenodd" d="M19.2384 2.31853C18.8572 2.20481 18.4913 2.32395 18.3374 2.54347C18.1878 2.75683 17.9433 2.88643 17.6802 2.89187C17.4171 2.8973 17.1673 2.77791 17.0088 2.57091C16.8181 2.32196 16.4389 2.21515 16.0909 2.31757C15.4732 2.51201 15.1211 3.26864 15.3803 4.03591C15.5963 4.66963 16.0802 5.18304 16.6134 5.5487C16.8761 5.72878 17.1339 5.86114 17.3452 5.94602C17.5242 6.01793 17.6279 6.03908 17.6575 6.04512C17.6597 6.04557 17.6614 6.04593 17.6628 6.04622C17.6643 6.0459 17.6663 6.04549 17.6687 6.04497C17.6991 6.03869 17.8035 6.01707 17.9835 5.94466C18.1969 5.85879 18.4571 5.72524 18.7212 5.5444C19.2588 5.17622 19.7384 4.66459 19.9435 4.04252L19.9455 4.03663C20.2076 3.2616 19.8467 2.5022 19.2384 2.31853ZM17.6495 1.00692C18.3024 0.613212 19.1046 0.590339 19.7153 0.773009L19.7167 0.773434C21.4673 1.30053 21.959 3.18775 21.5017 4.54454C21.1489 5.61172 20.3725 6.38068 19.6567 6.8709C19.2937 7.11949 18.9276 7.30969 18.6031 7.44022C18.3051 7.5601 17.9613 7.66286 17.663 7.66286C17.3656 7.66286 17.0238 7.56135 16.7264 7.44189C16.4032 7.31205 16.0388 7.12269 15.6771 6.87468C14.962 6.38432 14.1892 5.61643 13.8258 4.54893L13.8253 4.54747C13.3642 3.18434 13.8625 1.31531 15.6027 0.775457L15.6107 0.772968C16.2404 0.584595 17.0119 0.632766 17.6495 1.00692Z" fill="#292D32"/>
<path fill-rule="evenodd" clip-rule="evenodd" d="M14.6629 10.6629C14.6629 10.1106 15.1086 9.66286 15.6584 9.66286H15.6673C16.2171 9.66286 16.6629 10.1106 16.6629 10.6629C16.6629 11.2151 16.2171 11.6629 15.6673 11.6629H15.6584C15.1086 11.6629 14.6629 11.2151 14.6629 10.6629Z" fill="#292D32"/>
<path fill-rule="evenodd" clip-rule="evenodd" d="M10.6629 10.6629C10.6629 10.1106 11.1086 9.66286 11.6584 9.66286H11.6673C12.2171 9.66286 12.6629 10.1106 12.6629 10.6629C12.6629 11.2151 12.2171 11.6629 11.6673 11.6629H11.6584C11.1086 11.6629 10.6629 11.2151 10.6629 10.6629Z" fill="#292D32"/>
<path fill-rule="evenodd" clip-rule="evenodd" d="M6.66286 10.6629C6.66286 10.1106 7.10857 9.66286 7.65839 9.66286H7.66733C8.21714 9.66286 8.66286 10.1106 8.66286 10.6629C8.66286 11.2151 8.21714 11.6629 7.66733 11.6629H7.65839C7.10857 11.6629 6.66286 11.2151 6.66286 10.6629Z" fill="#292D32"/>
</svg>
