<svg width="23" height="23" viewBox="0 0 23 23" fill="none" xmlns="http://www.w3.org/2000/svg">
<path fill-rule="evenodd" clip-rule="evenodd" d="M7.26723 1.31951C7.31536 0.91954 7.71915 0.615005 8.20137 0.615005H14.0471C14.5298 0.615005 14.9339 0.920194 14.9813 1.32067L15.8075 8.2911C16.0869 10.6592 13.9656 12.615 11.118 12.615C8.27028 12.615 6.14897 10.6595 6.42838 8.29144L7.26723 1.31951ZM9.05073 2.18022L8.297 8.44466C8.12627 9.8954 9.38449 11.0498 11.118 11.0498C12.8516 11.0498 14.1099 9.89591 13.939 8.445L13.1964 2.18022H9.05073Z" fill="#1F2029"/>
<path fill-rule="evenodd" clip-rule="evenodd" d="M12.8965 0.872439C13.0484 0.708521 13.2641 0.615005 13.4904 0.615005H16.7478C18.229 0.615005 19.4399 0.887743 20.3218 1.6836C21.1931 2.46993 21.5915 3.63283 21.7919 5.0468C21.7932 5.05613 21.7944 5.06549 21.7954 5.07486L22.0946 7.94621C22.355 10.5026 20.4058 12.615 17.7731 12.615C15.6004 12.615 13.6649 10.9135 13.4412 8.79261L13.4409 8.79016L12.6933 1.47538C12.6708 1.25538 12.7447 1.03636 12.8965 0.872439ZM14.3754 2.18022L15.0348 8.63219L15.0349 8.63331C15.1749 9.95535 16.4217 11.0498 17.7731 11.0498C19.4548 11.0498 20.6669 9.74004 20.5005 8.10207L20.2031 5.2477C20.0186 3.95734 19.6915 3.24558 19.2348 2.83337C18.787 2.42922 18.0648 2.18022 16.7478 2.18022H14.3754Z" fill="#1F2029"/>
<path fill-rule="evenodd" clip-rule="evenodd" d="M1.90543 1.6836C2.78828 0.887744 4.00063 0.615005 5.48345 0.615005H8.74459C8.97115 0.615005 9.18714 0.708538 9.33917 0.87248C9.4912 1.03642 9.56507 1.25548 9.54252 1.47549L8.79429 8.78793C8.58257 10.9132 6.6415 12.615 4.46769 12.615C1.83217 12.615 -0.119071 10.5029 0.141236 7.94676L0.429878 5.07767C0.430916 5.06735 0.432163 5.05706 0.433619 5.0468C0.634229 3.63283 1.03314 2.46993 1.90543 1.6836ZM2.02445 5.24633L1.73734 8.10017C1.5703 9.73855 2.78376 11.0498 4.46769 11.0498C5.82198 11.0498 7.06702 9.95463 7.19795 8.63686L7.19815 8.63487L7.85848 2.18022H5.48345C4.16493 2.18022 3.44199 2.42922 2.99366 2.83337C2.53656 3.24543 2.20916 3.95683 2.02445 5.24633Z" fill="#1F2029"/>
<path fill-rule="evenodd" clip-rule="evenodd" d="M8.40282 16.5233C9.08773 15.8695 10.0467 15.615 11.1179 15.615C12.1891 15.615 13.1481 15.8695 13.8331 16.5233C14.518 17.1771 14.7846 18.0925 14.7846 19.115V21.8073C14.7846 22.2534 14.4058 22.615 13.9384 22.615H8.29742C7.83011 22.615 7.45127 22.2534 7.45127 21.8073V19.115C7.45127 18.0925 7.71791 17.1771 8.40282 16.5233ZM9.59946 17.6656C9.34514 17.9083 9.14358 18.3391 9.14358 19.115V20.9996H13.0923V19.115C13.0923 18.3391 12.8907 17.9083 12.6364 17.6656C12.3821 17.4228 11.9308 17.2304 11.1179 17.2304C10.305 17.2304 9.85378 17.4228 9.59946 17.6656Z" fill="#1F2029"/>
<path fill-rule="evenodd" clip-rule="evenodd" d="M1.9323 10.615C2.35576 10.615 2.69905 10.9431 2.69905 11.3479V15.7355C2.69905 17.8567 3.14849 19.1523 3.96835 19.9359C4.78821 20.7196 6.14366 21.1492 8.36275 21.1492H13.8731C16.0922 21.1492 17.4477 20.7196 18.2675 19.9359C19.0874 19.1523 19.5368 17.8567 19.5368 15.7355V11.3479C19.5368 10.9431 19.8801 10.615 20.3036 10.615C20.727 10.615 21.0703 10.9431 21.0703 11.3479V15.7355C21.0703 18.002 20.5997 19.7797 19.3519 20.9724C18.1041 22.1651 16.2443 22.615 13.8731 22.615H8.36275C5.99158 22.615 4.13181 22.1651 2.88401 20.9724C1.63621 19.7797 1.16555 18.002 1.16555 15.7355V11.3479C1.16555 10.9431 1.50884 10.615 1.9323 10.615Z" fill="#1F2029"/>
</svg>
